<svg xmlns="http://www.w3.org/2000/svg" fill="none" viewBox="0 0 14 14" height="14" width="14" id="Button-Go-Backward-15--Streamline-Core.svg"><desc>Button Go Backward 15 Streamline Icon: https://streamlinehq.com</desc><g id="button-go-backward-15"><path id="Union" fill="#ffffff" fill-rule="evenodd" d="m4.15222 3.34907 -0.45095 -0.7505C4.62047 1.90836 5.7619 1.5 7 1.5c3.0376 0 5.5 2.46243 5.5 5.5 0 3.0376 -2.4624 5.5 -5.5 5.5 -3.03757 0 -5.5 -2.4624 -5.5 -5.5 0 -0.38129 0.03869 -0.75276 0.1121 -1.11095 0.08317 -0.40578 -0.17835 -0.80215 -0.58413 -0.88532 -0.405776 -0.08317 -0.802147 0.17835 -0.885317 0.58413C0.0490381 6.04459 0 6.51696 0 7c0 3.866 3.13401 7 7 7 3.866 0 7 -3.134 7 -7 0 -3.86599 -3.134 -7 -7 -7 -1.51949 0 -2.92694 0.484829 -4.0745 1.30747L2.33128 0.318531C2.22713 0.145185 2.0288 0.0516502 1.82879 0.0815419 1.62878 0.111434 1.46647 0.258865 1.41755 0.455089L0.812746 2.88083c-0.032081 0.12867 -0.011734 0.26481 0.056564 0.37848s0.17895 0.19555 0.30762 0.22763l2.42574 0.6048c0.19623 0.04893 0.4026 -0.02517 0.52289 -0.18773 0.12029 -0.16257 0.13081 -0.38159 0.02666 -0.55494Zm1.53619 1.77495c0 -0.27614 -0.22386 -0.5 -0.5 -0.5 -0.27615 0 -0.5 0.22386 -0.5 0.5 0 0.2419 -0.1961 0.438 -0.438 0.438h-0.31267c-0.27614 0 -0.5 0.22386 -0.5 0.5s0.22386 0.5 0.5 0.5h0.31267c0.15273 0 0.2999 -0.02381 0.438 -0.06792v1.88188h-0.75035c-0.27615 0 -0.5 0.22385 -0.5 0.5 0 0.27614 0.22385 0.5 0.5 0.5H5.1827l0.00571 0.00003 0.00571 -0.00003h1.24526c0.27615 0 0.5 -0.22386 0.5 -0.5 0 -0.27615 -0.22385 -0.5 -0.5 -0.5h-0.75097l0 -3.25196Zm2.60879 0.5h1.60876c0.27614 0 0.50004 -0.22385 0.50004 -0.5 0 -0.27614 -0.2239 -0.5 -0.50004 -0.5H7.87363c-0.24442 0 -0.45301 0.17671 -0.4932 0.4178l-0.31266 1.876c-0.03092 0.18551 0.04487 0.37267 0.19615 0.4844 0.15127 0.11172 0.35244 0.12912 0.52065 0.04502l0.22923 -0.11462c0.19106 -0.09553 0.40174 -0.14526 0.61536 -0.14526h0.49514c0.2419 0 0.438 0.19609 0.438 0.43799v0.31267c0 0.2419 -0.1961 0.438 -0.438 0.438h-0.62533c-0.18993 0 -0.35284 -0.12116 -0.41321 -0.29196 -0.09202 -0.26035 -0.37768 -0.39682 -0.63804 -0.30479 -0.26036 0.09202 -0.39682 0.37768 -0.3048 0.63804 0.19717 0.55784 0.72915 0.95871 1.35604 0.95871h0.62534c0.79418 0 1.438 -0.64381 1.438 -1.438v-0.31267c0 -0.79418 -0.64382 -1.43799 -1.438 -1.43799h-0.49514c-0.14553 0 -0.29028 0.01336 -0.43247 0.03969l0.10051 -0.60303Z" clip-rule="evenodd" stroke-width="1"></path></g></svg>