<svg xmlns="http://www.w3.org/2000/svg" fill="none" viewBox="0 0 14 14" height="14" width="14" id="Button-Pause-2--Streamline-Core.svg"><desc>Button Pause 2 Streamline Icon: https://streamlinehq.com</desc><g id="button-pause-2--button-television-buttons-movies-tv-pause-video-controls"><path id="Union" fill="#ffffff" fill-rule="evenodd" d="M2 0.5C1.17157 0.5 0.5 1.17157 0.5 2v10c0 0.8284 0.67157 1.5 1.5 1.5h2.5c0.82843 0 1.5 -0.6716 1.5 -1.5V2C6 1.17157 5.32843 0.5 4.5 0.5H2Zm7.5 0C8.67157 0.5 8 1.17157 8 2v10c0 0.8284 0.67157 1.5 1.5 1.5H12c0.8284 0 1.5 -0.6716 1.5 -1.5V2c0 -0.82843 -0.6716 -1.5 -1.5 -1.5H9.5Z" clip-rule="evenodd" stroke-width="1"></path></g></svg>