<svg xmlns="http://www.w3.org/2000/svg" fill="none" viewBox="0 0 14 14" height="14" width="14" id="Button-Play--Streamline-Core.svg"><desc>Button Play Streamline Icon: https://streamlinehq.com</desc><g id="button-play--button-television-buttons-movies-play-tv-video-controls"><path id="Union" fill="#ffffff" fill-rule="evenodd" d="M3.00283 0.5c-0.27961 0 -0.55454 0.071214 -0.7989 0.206831 -0.24906 0.127096 -0.45929 0.319089 -0.60841 0.555799 -0.1514 0.24031 -0.23403 0.51751 -0.23893 0.80149l-0.00007 0v9.86318h-0.00007l0.00014 0.0086c0.0049 0.284 0.08753 0.5612 0.23893 0.8015 0.14912 0.2367 0.35935 0.4287 0.60841 0.5558 0.24436 0.1356 0.51929 0.2068 0.7989 0.2068 0.2838 0 0.56278 -0.0734 0.80987 -0.213 0.00575 -0.0032 0.01143 -0.0066 0.01704 -0.0101L11.806 8.34363c0.2475 -0.12503 0.4564 -0.3152 0.604 -0.55027 0.1528 -0.24322 0.2339 -0.52462 0.2339 -0.81185s-0.0811 -0.56863 -0.2339 -0.81185c-0.1478 -0.23533 -0.357 -0.42566 -0.6048 -0.55069L3.82831 0.722179C3.82317 0.719019 3.81796 0.715952 3.8127 0.71298 3.56561 0.573367 3.28663 0.5 3.00283 0.5Z" clip-rule="evenodd" stroke-width="1"></path></g></svg>